# xmcd
#
# Track frame offsets:
#	150
#	15067
#	31567
#	52933
#	71038
#	94269
#	109084
#	127399
#	140041
#	161609
#	180094
#	197187
#	212321
#	230328
#
# Disc length: 3351 seconds
#
# Revision: 1
# Processed by: cddbd v1.4PL0 Copyright (c) Steve Scherf et al.
# Submitted via: audiograbber 1.82.02
#
DISCID=b20d150e
DTITLE=Various Artist - Country Duets
DYEAR=2003
DGENRE=Country
TTITLE0=Beccy Cole and Adam Harvey - How Wrong Is It
TTITLE1=Melinda Schneider and Adam Brand - Love Away The Night
TTITLE2=Kevin Bennett and James Gillard - Mary
TTITLE3=James Reyne and James Blundell - Way Out West
TTITLE4=Graeme Connors and Rosemary Rae - When You Feel Good
TTITLE5=Troy Cassar Daley and Paul Kelly - I Wish I Was A Train
TTITLE6=Tamara Stewart and Rick Price - Here Comes The Rain
TTITLE7=Catherine Britt and Bill Chambers - It's Not Love But It's Not Bad
TTITLE8=Sara Storer and Travis Sinclair - I'll Be Home Soon
TTITLE9=Michael Carr and Melinda Schneider - Wearing White
TTITLE10=Adam Harvey and Tanya Self - Drive Away
TTITLE11=Shanley Del and Jason Sellers - Your Sweet Time
TTITLE12=Beccy Cole and Carole Sturzel - Mother Knows Best
TTITLE13=Graeme Connors and Elizabeth Lord - All That Metters Now
EXTD=
EXTT0=
EXTT1=
EXTT2=
EXTT3=
EXTT4=
EXTT5=
EXTT6=
EXTT7=
EXTT8=
EXTT9=
EXTT10=
EXTT11=
EXTT12=
EXTT13=
PLAYORDER=
